{
  "accessors": [
    {
      "bufferView": 2,
      "componentType": 5126,
      "count": 65532,
      "max": [
        3.360816478729248,
        0.39867764711380005,
        3.4311392307281494
      ],
      "min": [
        -0.6264629364013672,
        -1.8941813707351685,
        -0.7820420265197754
      ],
      "type": "VEC3"
    },
    {
      "bufferView": 2,
      "byteOffset": 786384,
      "componentType": 5126,
      "count": 65532,
      "max": [
        0.9999988675117493,
        0.9980351328849792,
        0.9999960660934448
      ],
      "min": [
        -0.9999650120735168,
        -1.0,
        -0.9999302625656128
      ],
      "type": "VEC3"
    },
    {
      "bufferView": 1,
      "componentType": 5126,
      "count": 65532,
      "max": [
        0.9952943921089172,
        0.9557511806488037
      ],
      "min": [
        0.004303381312638521,
        0.004272127058357
      ],
      "type": "VEC2"
    },
    {
      "bufferView": 0,
      "componentType": 5125,
      "count": 313290,
      "type": "SCALAR"
    },
    {
      "bufferView": 2,
      "byteOffset": 1572768,
      "componentType": 5126,
      "count": 65532,
      "max": [
        3.087416172027588,
        0.4748406708240509,
        3.4302079677581787
      ],
      "min": [
        -3.3581905364990234,
        -1.3750102519989014,
        -3.3505780696868896
      ],
      "type": "VEC3"
    },
    {
      "bufferView": 2,
      "byteOffset": 2359152,
      "componentType": 5126,
      "count": 65532,
      "max": [
        0.9999749660491943,
        0.9972209334373474,
        0.9999828338623047
      ],
      "min": [
        -0.9999967813491821,
        -1.0,
        -0.9999608993530273
      ],
      "type": "VEC3"
    },
    {
      "bufferView": 1,
      "byteOffset": 524256,
      "componentType": 5126,
      "count": 65532,
      "max": [
        0.9955968856811523,
        0.9455252885818481
      ],
      "min": [
        0.004257999826222658,
        0.004272127058357
      ],
      "type": "VEC2"
    },
    {
      "bufferView": 0,
      "byteOffset": 1253160,
      "componentType": 5125,
      "count": 300783,
      "type": "SCALAR"
    },
    {
      "bufferView": 2,
      "byteOffset": 3145536,
      "componentType": 5126,
      "count": 18331,
      "max": [
        3.360609531402588,
        0.4406915009021759,
        1.8792140483856201
      ],
      "min": [
        -3.363882064819336,
        -1.334652066230774,
        -1.670541763305664
      ],
      "type": "VEC3"
    },
    {
      "bufferView": 2,
      "byteOffset": 3365508,
      "componentType": 5126,
      "count": 18331,
      "max": [
        0.9999502897262573,
        0.9986651539802551,
        0.9999913573265076
      ],
      "min": [
        -1.0,
        -1.0,
        -0.9996172785758972
      ],
      "type": "VEC3"
    },
    {
      "bufferView": 1,
      "byteOffset": 1048512,
      "componentType": 5126,
      "count": 18331,
      "max": [
        0.9956120252609253,
        0.9456765651702881
      ],
      "min": [
        0.004303381312638521,
        0.006450428627431393
      ],
      "type": "VEC2"
    },
    {
      "bufferView": 0,
      "byteOffset": 2456292,
      "componentType": 5125,
      "count": 74202,
      "type": "SCALAR"
    }
  ],
  "asset": {
    "extras": {
      "author": "eyesCloud3D (https://sketchfab.com/eyesCloud3D)",
      "license": "CC-BY-4.0 (http://creativecommons.org/licenses/by/4.0/)",
      "source": "https://sketchfab.com/3d-models/santa-maria-del-fiore-cathedral-florence-382fa42bca4346979e673c12e93a2df8",
      "title": "Santa Maria del Fiore Cathedral, Florence"
    },
    "generator": "Sketchfab-16.62.0",
    "version": "2.0"
  },
  "bufferViews": [
    {
      "buffer": 0,
      "byteLength": 2753100,
      "name": "floatBufferViews",
      "target": 34963
    },
    {
      "buffer": 0,
      "byteLength": 1195160,
      "byteOffset": 2753100,
      "byteStride": 8,
      "name": "floatBufferViews",
      "target": 34962
    },
    {
      "buffer": 0,
      "byteLength": 3585480,
      "byteOffset": 3948260,
      "byteStride": 12,
      "name": "floatBufferViews",
      "target": 34962
    }
  ],
  "buffers": [
    {
      "byteLength": 7533740,
      "uri": "scene.bin"
    }
  ],
  "images": [
    {
      "uri": "textures/material_baseColor.png"
    }
  ],
  "materials": [
    {
      "doubleSided": true,
      "name": "material",
      "pbrMetallicRoughness": {
        "baseColorTexture": {
          "index": 0
        },
        "metallicFactor": 0.0
      }
    }
  ],
  "meshes": [
    {
      "name": "Object_0",
      "primitives": [
        {
          "attributes": {
            "NORMAL": 1,
            "POSITION": 0,
            "TEXCOORD_0": 2
          },
          "indices": 3,
          "material": 0,
          "mode": 4
        }
      ]
    },
    {
      "name": "Object_1",
      "primitives": [
        {
          "attributes": {
            "NORMAL": 5,
            "POSITION": 4,
            "TEXCOORD_0": 6
          },
          "indices": 7,
          "material": 0,
          "mode": 4
        }
      ]
    },
    {
      "name": "Object_2",
      "primitives": [
        {
          "attributes": {
            "NORMAL": 9,
            "POSITION": 8,
            "TEXCOORD_0": 10
          },
          "indices": 11,
          "material": 0,
          "mode": 4
        }
      ]
    }
  ],
  "nodes": [
    {
      "children": [
        1
      ],
      "matrix": [
        0.6330381631851196,
        0.01011693477630598,
        0.7740544676780701,
        0.0,
        1.6653345369377348e-16,
        -0.9999145865440369,
        0.013068938627838866,
        0.0,
        0.774120569229126,
        -0.008273136802017548,
        -0.6329841017723083,
        0.0,
        0.0,
        0.0,
        0.0,
        1.0
      ],
      "name": "Sketchfab_model"
    },
    {
      "children": [
        2,
        3,
        4
      ],
      "name": "Catedral_de_Santa_Mar_a_del_Fiore.obj.cleaner.materialmerger.gles"
    },
    {
      "mesh": 0,
      "name": "Object_2"
    },
    {
      "mesh": 1,
      "name": "Object_3"
    },
    {
      "mesh": 2,
      "name": "Object_4"
    }
  ],
  "samplers": [
    {
      "magFilter": 9729,
      "minFilter": 9987,
      "wrapS": 10497,
      "wrapT": 10497
    }
  ],
  "scene": 0,
  "scenes": [
    {
      "name": "Sketchfab_Scene",
      "nodes": [
        0
      ]
    }
  ],
  "textures": [
    {
      "sampler": 0,
      "source": 0
    }
  ]
}
